<svg xmlns="http://www.w3.org/2000/svg" viewBox="0 0 1417.32 1417.32"><defs><style>.cls-1,.cls-5{fill:#fff;}.cls-2,.cls-6{fill:red;}.cls-3{fill:#0c73b5;}.cls-4,.cls-7{fill:#04f;}.cls-5,.cls-6,.cls-7{fill-rule:evenodd;}</style></defs><g id="Layer_1" data-name="Layer 1"><path class="cls-1" d="M864.16,1378.43a254.77,254.77,0,0,1-42.75-3.48,9.4,9.4,0,0,1,2-18.66c41.15,2,81.54-7.51,115.61-16.32l13.93-3.66c48.23-12.6,98.08-25.66,150-25.66a276.72,276.72,0,0,1,55.22,5.33c2.33.47,4.74,1,7.1,1.55a9.42,9.42,0,0,1,7.2,10.6,9.24,9.24,0,0,1-10.09,7.92c-25.08-2.07-49.79-.73-78,3.83-26.16,4.22-52.18,10.31-77.39,16.22-19.36,4.54-38.68,9.05-58.33,12.86-33.94,6.54-60,9.45-84.6,9.47"/><path class="cls-2" d="M941.42,1349.06c-34.39,8.92-70,17-107,16.94-3.8,0-7.62-.14-11.42-.34,41.51,7.15,84.12,1.76,124-6,45.69-8.81,89.84-21.67,136-29.12,26.48-4.25,53.44-6.13,80.29-3.89-2.29-.53-4.56-1-6.85-1.49-75.08-15.11-146.11,6-215,23.85"/><path class="cls-3" d="M1156.45,1316.63c-96.07-25.91-192.68-4.18-284.17,15.4-37,7.94-75.1,15-114.34,11.53-6.4-.56-12.72-1.41-19-2.48,2.33,1.26,4.73,2.48,7.15,3.59,27.67,13.23,59.2,19.71,90.81,19.77,37.06.09,72.6-8,107-16.9,68.86-17.86,139.89-39,215-23.87,24.65,5,48.28,13.56,69,25.54a171,171,0,0,0-17.89-12.15c-17.16-9-34.44-15.26-53.55-20.43"/><path class="cls-1" d="M837.44,1373.86h-.53c-33.91-.09-66.7-7.26-94.86-20.67-2.53-1.24-5-2.48-7.54-3.81a9.41,9.41,0,0,1,6-17.56q9,1.56,18.24,2.37c38.78,3.49,76.53-3.81,111.53-11.36l5.86-1.24c60.15-12.9,122.39-26.23,185.71-26.25,34.85,0,66.58,4,97,12.21,21.38,5.78,39,12.52,55.5,21.21a180.76,180.76,0,0,1,19.34,13.07,9.41,9.41,0,0,1-10.54,15.53c-19.4-11.21-42.28-19.68-66.14-24.48a257.82,257.82,0,0,0-51.45-5c-49.55,0-98.25,12.73-145.35,25.06l-14,3.65c-32.13,8.33-69.69,17.23-108.83,17.23m-32.29-21.16a224.36,224.36,0,0,0,31.8,2.35l.48,9.39v-9.39c36.94,0,73.12-8.58,104.12-16.62l14-3.66c29-7.56,58.5-15.28,88.74-20.26-55.41,2.18-110.59,14-164.14,25.46l-5.87,1.26c-22,4.71-45.06,9.35-69.09,11.47"/><polygon class="cls-3" points="209.74 1204.22 184.93 1204.22 184.94 1195.27 245.3 1195.25 245.31 1204.22 220.38 1204.22 220.38 1276.81 209.74 1276.81 209.74 1204.22"/><path class="cls-1" d="M220.37,1286.2H209.74a9.39,9.39,0,0,1-9.41-9.39v-63.2h-15.4a9.4,9.4,0,0,1-9.42-9.39l0-9a9.4,9.4,0,0,1,9.4-9.39H245.3a9.39,9.39,0,0,1,9.4,9.41v9a9.4,9.4,0,0,1-9.39,9.41l-15.52,0v63.2a9.39,9.39,0,0,1-9.42,9.39"/><path class="cls-3" d="M264.43,1201.78c0,3.64-2.55,6.52-6.8,6.57a6.28,6.28,0,0,1-6.41-6.57,6.61,6.61,0,1,1,13.21,0m-11.88,75v-58.56l10.67,0,0,58.58Z"/><path class="cls-1" d="M263.22,1286.2H252.55a9.36,9.36,0,0,1-9.38-9.39v-58.56a9.39,9.39,0,0,1,2.29-6.18,16,16,0,1,1,24.79-.07,9.4,9.4,0,0,1,2.35,6.25v58.56a9.38,9.38,0,0,1-9.38,9.39m-5.58-87.27a3.18,3.18,0,0,0-2.63,2.85c0,2.56,5.61,3.21,5.62,0a3.21,3.21,0,0,0-3-2.85"/><path class="cls-3" d="M286.79,1249.47c.24,14.4,9.31,20.32,20.08,20.32,7.63,0,12.36-1.35,16.22-3l2,7.62a47.86,47.86,0,0,1-19.61,3.77c-18,0-28.81-12-28.81-29.64S287,1217,304.09,1217c19.23,0,24.19,16.69,24.19,27.5a27.38,27.38,0,0,1-.35,4.94Zm31.21-7.62c.12-6.67-2.78-17.18-14.76-17.18-10.89,0-15.5,9.78-16.33,17.18ZM305.9,1193l11.62,17.31-8.11,0-7-11.38-.26,0-7,11.34h-8L298.51,1193Zm2.31,99.81a6,6,0,0,1-6,6.16,6,6,0,0,1-6.07-6.16,6.26,6.26,0,0,1,6.16-6.27,6,6,0,0,1,5.95,6.27"/><path class="cls-1" d="M302.17,1308.35a15.35,15.35,0,0,1-15.47-15.58,15.72,15.72,0,0,1,2.38-8.34c-13.52-5.67-21.84-18.75-21.86-35.93,0-13.33,4.91-24.58,13-31.87a8.65,8.65,0,0,1-1.32-1.91,9.37,9.37,0,0,1,.4-9.6l11.4-17.33a9.37,9.37,0,0,1,7.85-4.24h7.39a9.4,9.4,0,0,1,7.8,4.17L325.34,1205a9.39,9.39,0,0,1,.48,9.67,3.79,3.79,0,0,1-.2.34c8.23,7.06,12.06,18.3,12.06,29.44a32.67,32.67,0,0,1-.55,6.85,9.36,9.36,0,0,1-8.94,7.51,9.56,9.56,0,0,1,4,5.6l1.91,7.64a9.39,9.39,0,0,1-5.25,10.87,49.94,49.94,0,0,1-12.45,3.7,16.59,16.59,0,0,1,1.18,6.12,15.35,15.35,0,0,1-15.44,15.58m0-18.79a3.44,3.44,0,0,0-3.36,3.21c0,3.27,6.71,3.53,6.69,0a3.37,3.37,0,0,0-3.33-3.21"/><path class="cls-3" d="M341.47,1234.11c0-6.19-.13-11-.49-15.86h9.45l.6,9.67h.23c2.91-5.47,9.67-10.91,19.36-10.91,8.11,0,20.71,4.86,20.7,25v34.85H380.67V1243c0-9.42-3.51-17.29-13.56-17.29-6.91,0-12.34,5-14.27,10.89a15.17,15.17,0,0,0-.72,5v35.22H341.47Z"/><path class="cls-1" d="M391.32,1286.2H380.67a9.37,9.37,0,0,1-9.4-9.39V1243c0-7.88-2.5-7.88-4.16-7.88-2.68,0-4.64,2.27-5.34,4.41l-.24,2,0,35.22a9.37,9.37,0,0,1-9.4,9.39H341.47a9.37,9.37,0,0,1-9.4-9.39v-42.7c0-5.91-.1-10.55-.43-15.17a9.32,9.32,0,0,1,2.46-7.09,9.42,9.42,0,0,1,6.89-3h9.44a9.33,9.33,0,0,1,5.82,2,32.36,32.36,0,0,1,14.38-3.25c15,0,30.08,10.63,30.08,34.34v34.85a9.37,9.37,0,0,1-9.38,9.39"/><path class="cls-3" d="M455.89,1193l-14.75,17.31-7.5,0L444.28,1193Zm-21.64,83.85v-58.58l10.63,0v58.56Z"/><path class="cls-1" d="M444.89,1286.2H434.26a9.39,9.39,0,0,1-9.42-9.39v-58.56a9.91,9.91,0,0,1,.61-3.36l0,0a9.42,9.42,0,0,1,.24-9.54L436.27,1188a9.41,9.41,0,0,1,8-4.47h11.63a9.39,9.39,0,0,1,7.14,15.51l-11.09,13a9.33,9.33,0,0,1,2.34,6.18v58.56a9.39,9.39,0,0,1-9.4,9.39"/><path class="cls-3" d="M504.28,1274.76a41.32,41.32,0,0,1-16.8,3.38c-17.66,0-29.15-12-29.16-29.89S470.65,1217,489.77,1217c6.3,0,11.86,1.58,14.78,3.19l-2.44,8.09a25.78,25.78,0,0,0-12.34-2.79c-13.43,0-20.68,10.06-20.68,22.15,0,13.54,8.69,21.89,20.31,21.89a30.28,30.28,0,0,0,13.09-2.79Z"/><path class="cls-1" d="M487.46,1287.55c-22.69,0-38.55-16.18-38.55-39.32,0-23.52,17.17-40.59,40.86-40.59,7,0,14.39,1.65,19.25,4.3a9.35,9.35,0,0,1,4.51,10.91l-2.41,8.13a9.35,9.35,0,0,1-5.33,6,9.57,9.57,0,0,1-8-.32,16.66,16.66,0,0,0-8-1.71c-10.18,0-11.29,8.9-11.28,12.73,0,7.81,4.07,12.47,10.91,12.49a21.64,21.64,0,0,0,9.28-2,9.31,9.31,0,0,1,8,.16,9.57,9.57,0,0,1,5,6.34l1.79,8a9.39,9.39,0,0,1-5.1,10.55,50.08,50.08,0,0,1-20.89,4.32"/><path class="cls-3" d="M516.73,1190.91h10.64v36.67h.26a20,20,0,0,1,7.6-7.64,21.91,21.91,0,0,1,10.9-2.93c7.85,0,20.45,4.86,20.44,25v34.85H555.93v-33.63c0-9.44-3.52-17.31-13.54-17.31-6.92,0-12.23,4.86-14.29,10.53a13.53,13.53,0,0,0-.73,5.09v35.32H516.74Z"/><path class="cls-1" d="M566.6,1286.2H555.94a9.37,9.37,0,0,1-9.4-9.39v-33.63c0-7.92-2.49-7.92-4.13-7.92-3.07,0-4.87,2.72-5.44,4.35l-.18,1.88,0,35.32a9.4,9.4,0,0,1-9.42,9.39H516.73a9.39,9.39,0,0,1-9.4-9.39v-85.9a9.38,9.38,0,0,1,9.4-9.39l10.65,0a9.39,9.39,0,0,1,9.4,9.41l0,18.17c16.89-5.29,39.2,4.06,39.2,32.88v34.85a9.39,9.39,0,0,1-9.4,9.39"/><path class="cls-3" d="M651.27,1274.74a41,41,0,0,1-16.82,3.4c-17.66,0-29.17-12-29.17-29.89S617.63,1217,636.76,1217c6.28,0,11.85,1.58,14.74,3.19l-2.43,8.09a25.38,25.38,0,0,0-12.33-2.76c-13.43,0-20.7,10-20.7,22.12,0,13.54,8.73,21.89,20.33,21.89a30,30,0,0,0,13.06-2.79Z"/><path class="cls-1" d="M634.44,1287.55c-22.69,0-38.57-16.18-38.57-39.3,0-23.54,17.21-40.63,40.87-40.61,7,0,14.42,1.63,19.27,4.3a9.39,9.39,0,0,1,4.51,10.91l-2.43,8.11a9.3,9.3,0,0,1-5.36,6,9.16,9.16,0,0,1-8-.34,16.87,16.87,0,0,0-8-1.69c-10.2,0-11.28,8.9-11.28,12.73,0,7.81,4.08,12.49,10.94,12.47a20.46,20.46,0,0,0,9.24-2,9.37,9.37,0,0,1,13,6.53l1.81,8a9.38,9.38,0,0,1-5.1,10.57,50.5,50.5,0,0,1-20.87,4.3"/><path class="cls-3" d="M663.72,1190.91h10.64v36.67h.24a20,20,0,0,1,7.6-7.64,22,22,0,0,1,10.91-2.93c7.89,0,20.45,4.86,20.47,25v34.85H702.9l0-33.63c0-9.46-3.51-17.31-13.55-17.31-6.9,0-12.23,4.86-14.26,10.53a13,13,0,0,0-.75,5.09v35.32H663.72Z"/><path class="cls-1" d="M713.58,1286.2H702.92a9.39,9.39,0,0,1-9.41-9.39l0-33.65c0-7.92-2.52-7.9-4.17-7.92-3.06,0-4.85,2.74-5.44,4.34l-.15,1.91v35.32a9.39,9.39,0,0,1-9.41,9.39H663.72a9.38,9.38,0,0,1-9.41-9.39v-85.9a9.4,9.4,0,0,1,9.4-9.39h10.66a9.38,9.38,0,0,1,9.41,9.39v18.14c16.9-5.26,39.21,4.09,39.2,32.93v34.83a9.36,9.36,0,0,1-9.39,9.39"/><path class="cls-3" d="M783.84,1247.05c0,21.65-15.12,31.09-29.16,31.09-15.72,0-28.07-11.62-28.09-30.13,0-19.49,13-31,29.06-31,16.83,0,28.2,12.22,28.19,30m-46.31.6c0,12.82,7.23,22.48,17.63,22.48,10.18,0,17.79-9.56,17.8-22.72,0-9.93-4.94-22.4-17.56-22.4-12.46,0-17.89,11.62-17.87,22.64"/><path class="cls-1" d="M754.7,1287.53c-21.74,0-37.49-16.6-37.49-39.52,0-23.4,16.17-40.39,38.44-40.37s37.59,16.2,37.61,39.41c0,26.59-19.42,40.5-38.56,40.48m.72-53.1c-8.27,0-8.51,11.87-8.51,13.22,0,6.52,2.85,13.09,8.26,13.09,4.76,0,8.36-5.73,8.39-13.33,0-.15-.11-13-8.14-13"/><path class="cls-3" d="M822.91,1234.11c0-6.19-.24-11-.47-15.86h9.3l.48,9.57h.36c3.28-5.61,8.71-10.81,18.51-10.81,7.87,0,13.92,4.86,16.46,11.77h.23a23.62,23.62,0,0,1,6.65-7.64,19.88,19.88,0,0,1,12.84-4.13c7.86,0,19.35,5.14,19.35,25.42v34.38H896.23v-33c0-11.39-4.24-18-12.71-18-6.15,0-10.76,4.47-12.71,9.56a18.61,18.61,0,0,0-.84,5.33v36.18H859.55V1241.7c0-9.28-4.11-16-12.22-16-6.53,0-11.48,5.33-13.17,10.66a14.31,14.31,0,0,0-.89,5.21l0,35.2H822.91Z"/><path class="cls-1" d="M906.62,1286.2H896.23a9.39,9.39,0,0,1-9.4-9.39v-33c0-8.63-2.5-8.63-3.31-8.63-2.06,0-3.43,2.21-3.92,3.49a9.07,9.07,0,0,0-.22,2v36.18a9.39,9.39,0,0,1-9.4,9.39H859.56a9.4,9.4,0,0,1-9.41-9.39V1241.7c0-2.44-.37-6.55-2.81-6.55-1.73,0-3.58,2.12-4.23,4.11l-.41,2.36,0,35.19a9.42,9.42,0,0,1-9.42,9.39H822.93a9.38,9.38,0,0,1-9.42-9.39v-42.7c0-5.85-.23-10.42-.45-15a9.87,9.87,0,0,1,2.57-7.15,9.7,9.7,0,0,1,6.82-3.12h9.3a9.24,9.24,0,0,1,5.6,1.84c9.42-4.64,22.81-3.85,31.08,3.23a2.39,2.39,0,0,0,.35-.28,29.21,29.21,0,0,1,18.49-6c14.34,0,28.76,10.76,28.78,34.79v34.38a9.39,9.39,0,0,1-9.42,9.39"/><path class="cls-3" d="M950,1278.22q-13.41,0-21.41-8.47t-8-22.49c0-10.12,2.79-18.1,8.32-23.79s13.08-8.58,22.53-8.58c9,0,16,2.81,21.12,8.35s7.59,13.22,7.59,23.1q0,14.45-8.18,23.18c-5.47,5.79-12.79,8.72-22,8.7m.72-55.16c-6.24,0-11.15,2.1-14.76,6.34s-5.44,10-5.44,17.52q0,10.75,5.49,16.95t14.7,6.2q9.4,0,14.45-6.07c3.37-4.09,5-9.85,5-17.34s-1.69-13.37-5-17.45-8.2-6.15-14.45-6.15m-.17,72.3a5.6,5.6,0,0,1-4.16-1.71,5.74,5.74,0,0,1-1.7-4.13,5.25,5.25,0,0,1,1.78-4.06,6,6,0,0,1,8.21,0,5.5,5.5,0,0,1,1.71,4.06,5.8,5.8,0,0,1-1.71,4.13,5.66,5.66,0,0,1-4.13,1.71"/><path class="cls-1" d="M950.57,1304.75a15.25,15.25,0,0,1-14.67-19.38,35.11,35.11,0,0,1-14.1-9.18c-7-7.4-10.57-17.16-10.57-28.92,0-12.63,3.69-22.86,11-30.36s17.23-11.41,29.27-11.41c11.72,0,21.16,3.83,28,11.41,6.68,7.29,10.06,17.19,10.06,29.44,0,12-3.59,22-10.72,29.61a36,36,0,0,1-13.68,9.11,15.36,15.36,0,0,1,.65,4.45,15.24,15.24,0,0,1-15.25,15.23m-3-17.18a3.86,3.86,0,0,0-.57,2,4.14,4.14,0,0,0,1.23,2.78,3.81,3.81,0,0,0,4.64,0,4.07,4.07,0,0,0,1.22-2.82,3.85,3.85,0,0,0-.62-2,41.42,41.42,0,0,1-5.9.06m3.15-55.09c-4.43,0-6.39,1.58-7.59,3-2.12,2.46-3.19,6.29-3.18,11.4,0,4.75,1,8.37,3.09,10.7,1.28,1.41,3.28,3,7.69,3s6.15-1.44,7.19-2.68c1.9-2.31,2.89-6.12,2.89-11.27,0-3.66-.52-8.63-2.91-11.56-1-1.24-2.79-2.69-7.18-2.67"/><path class="cls-3" d="M1006.53,1201.8a6.3,6.3,0,0,1-6.76,6.5,6.22,6.22,0,0,1-6.42-6.5,6.46,6.46,0,0,1,6.65-6.65,6.4,6.4,0,0,1,6.53,6.65m-11.87,75v-58.56h10.65v58.56Z"/><path class="cls-1" d="M1005.32,1286.2H994.67a9.39,9.39,0,0,1-9.4-9.39v-58.56a9.4,9.4,0,0,1,2.3-6.18,16.11,16.11,0,0,1,12.41-26.32,16.14,16.14,0,0,1,12.38,26.25,9.4,9.4,0,0,1,2.35,6.25v58.56a9.38,9.38,0,0,1-9.4,9.39m-5.56-87.27a3.18,3.18,0,0,0-2.65,2.87c0,2.57,5.65,3.25,5.64,0a3.21,3.21,0,0,0-3-2.85"/><path class="cls-3" d="M1048.62,1234.11c0-6.19-.12-11-.49-15.86h9.44l.6,9.67h.26c2.89-5.43,9.67-10.91,19.35-10.91,8.11,0,20.69,4.86,20.69,25v34.85h-10.65V1243c0-9.42-3.53-17.27-13.57-17.29-6.89,0-12.33,5-14.26,10.89a15.23,15.23,0,0,0-.74,5v35.22h-10.64Z"/><path class="cls-1" d="M1098.47,1286.2h-10.64a9.38,9.38,0,0,1-9.41-9.39V1243c0-7.88-2.5-7.88-4.17-7.88-2.66,0-4.62,2.27-5.32,4.41l-.26,2v35.22a9.37,9.37,0,0,1-9.4,9.39h-10.64a9.37,9.37,0,0,1-9.39-9.39v-42.7c0-5.91-.11-10.53-.45-15.15a9.37,9.37,0,0,1,9.36-10.12h9.44a9.23,9.23,0,0,1,5.82,2,31.87,31.87,0,0,1,14.39-3.23c15,0,30.09,10.61,30.09,34.32v34.85a9.39,9.39,0,0,1-9.4,9.39"/><path class="cls-3" d="M1115.76,1190.91h10.64v36.67h.26a19.91,19.91,0,0,1,7.6-7.64,22,22,0,0,1,10.89-2.93c7.88,0,20.46,4.86,20.46,25v34.85H1155v-33.63c0-9.46-3.52-17.31-13.55-17.31-6.91,0-12.22,4.86-14.3,10.53a14.1,14.1,0,0,0-.71,5.09v35.32h-10.65Z"/><path class="cls-1" d="M1165.62,1286.2H1155a9.38,9.38,0,0,1-9.4-9.39v-33.65c0-7.92-2.51-7.9-4.15-7.92-3.06,0-4.87,2.74-5.45,4.37l-.17,1.88v35.32a9.37,9.37,0,0,1-9.39,9.39h-10.64a9.37,9.37,0,0,1-9.39-9.39v-85.9a9.34,9.34,0,0,1,9.37-9.39h10.66a9.36,9.36,0,0,1,9.39,9.39v18.14c16.8-5.3,39.22,4.07,39.2,32.91l0,34.85a9.4,9.4,0,0,1-9.39,9.39"/><path class="cls-3" d="M1224,1262.76a99.07,99.07,0,0,0,.85,14h-9.54l-.86-7.38h-.33a22,22,0,0,1-17.93,8.71c-11.85,0-17.9-8.37-17.9-16.82,0-14.16,12.57-21.89,35.22-21.78v-1.2c0-4.73-1.35-13.56-13.33-13.46a28.35,28.35,0,0,0-15.35,4.37l-2.44-7.1a37.8,37.8,0,0,1,19.35-5.14c17.92,0,22.26,12.24,22.28,23.86Zm-26.83-69.8,10.64,17.29h-7.5L1185.56,1193Zm16.54,54c-11.59-.24-24.78,1.82-24.78,13.18,0,7,4.6,10.18,9.91,10.18a14.81,14.81,0,0,0,14.41-9.81,11.89,11.89,0,0,0,.49-3.39Z"/><path class="cls-1" d="M1196.2,1287.55c-17.74,0-27.3-13.52-27.31-26.23a28.18,28.18,0,0,1,12.37-23.38,9.47,9.47,0,0,1-5.33-5.65l-2.42-7.15a9.43,9.43,0,0,1,3.9-11,42.82,42.82,0,0,1,10.07-4.44l-9.07-10.64a9.41,9.41,0,0,1,7.16-15.51h11.61a9.41,9.41,0,0,1,8,4.47l10.63,17.31a9.3,9.3,0,0,1,1.39,5.48c10.38,4.94,16.24,15.42,16.23,30.06v21.89a88,88,0,0,0,.73,12.64,9.37,9.37,0,0,1-9.29,10.8h-9.56a9.55,9.55,0,0,1-5.35-1.64,32.75,32.75,0,0,1-13.77,3"/><path class="cls-4" d="M1156.45,1316.63c-96.07-25.91-192.68-4.18-284.17,15.4-37,7.94-75.1,15-114.34,11.53-6.4-.56-12.72-1.41-19-2.48,2.33,1.26,4.73,2.48,7.15,3.59,27.67,13.23,59.2,19.71,90.81,19.77,37.06.09,72.6-8,107-16.9,68.86-17.86,139.89-39,215-23.87,24.65,5,48.28,13.56,69,25.54a171,171,0,0,0-17.89-12.15c-17.16-9-34.44-15.26-53.55-20.43"/><polygon class="cls-4" points="209.74 1204.22 184.93 1204.22 184.94 1195.27 245.3 1195.25 245.31 1204.22 220.38 1204.22 220.38 1276.81 209.74 1276.81 209.74 1204.22"/><path class="cls-4" d="M264.43,1201.78c0,3.64-2.55,6.52-6.8,6.57a6.28,6.28,0,0,1-6.41-6.57,6.61,6.61,0,1,1,13.21,0m-11.88,75v-58.56l10.67,0,0,58.58Z"/><path class="cls-4" d="M286.79,1249.47c.24,14.4,9.31,20.32,20.08,20.32,7.63,0,12.36-1.35,16.22-3l2,7.62a47.86,47.86,0,0,1-19.61,3.77c-18,0-28.81-12-28.81-29.64S287,1217,304.09,1217c19.23,0,24.19,16.69,24.19,27.5a27.38,27.38,0,0,1-.35,4.94Zm31.21-7.62c.12-6.67-2.78-17.18-14.76-17.18-10.89,0-15.5,9.78-16.33,17.18ZM305.9,1193l11.62,17.31-8.11,0-7-11.38-.26,0-7,11.34h-8L298.51,1193Zm2.31,99.81a6,6,0,0,1-6,6.16,6,6,0,0,1-6.07-6.16,6.26,6.26,0,0,1,6.16-6.27,6,6,0,0,1,5.95,6.27"/><path class="cls-4" d="M341.47,1234.11c0-6.19-.13-11-.49-15.86h9.45l.6,9.67h.23c2.91-5.47,9.67-10.91,19.36-10.91,8.11,0,20.71,4.86,20.7,25v34.85H380.67V1243c0-9.42-3.51-17.29-13.56-17.29-6.91,0-12.34,5-14.27,10.89a15.17,15.17,0,0,0-.72,5v35.22H341.47Z"/><path class="cls-4" d="M455.89,1193l-14.75,17.31-7.5,0L444.28,1193Zm-21.64,83.85v-58.58l10.63,0v58.56Z"/><path class="cls-4" d="M504.28,1274.76a41.32,41.32,0,0,1-16.8,3.38c-17.66,0-29.15-12-29.16-29.89S470.65,1217,489.77,1217c6.3,0,11.86,1.58,14.78,3.19l-2.44,8.09a25.78,25.78,0,0,0-12.34-2.79c-13.43,0-20.68,10.06-20.68,22.15,0,13.54,8.69,21.89,20.31,21.89a30.28,30.28,0,0,0,13.09-2.79Z"/><path class="cls-4" d="M516.73,1190.91h10.64v36.67h.26a20,20,0,0,1,7.6-7.64,21.91,21.91,0,0,1,10.9-2.93c7.85,0,20.45,4.86,20.44,25v34.85H555.93v-33.63c0-9.44-3.52-17.31-13.54-17.31-6.92,0-12.23,4.86-14.29,10.53a13.53,13.53,0,0,0-.73,5.09v35.32H516.74Z"/><path class="cls-4" d="M651.27,1274.74a41,41,0,0,1-16.82,3.4c-17.66,0-29.17-12-29.17-29.89S617.63,1217,636.76,1217c6.28,0,11.85,1.58,14.74,3.19l-2.43,8.09a25.38,25.38,0,0,0-12.33-2.76c-13.43,0-20.7,10-20.7,22.12,0,13.54,8.73,21.89,20.33,21.89a30,30,0,0,0,13.06-2.79Z"/><path class="cls-4" d="M663.72,1190.91h10.64v36.67h.24a20,20,0,0,1,7.6-7.64,22,22,0,0,1,10.91-2.93c7.89,0,20.45,4.86,20.47,25v34.85H702.9l0-33.63c0-9.46-3.51-17.31-13.55-17.31-6.9,0-12.23,4.86-14.26,10.53a13,13,0,0,0-.75,5.09v35.32H663.72Z"/><path class="cls-4" d="M783.84,1247.05c0,21.65-15.12,31.09-29.16,31.09-15.72,0-28.07-11.62-28.09-30.13,0-19.49,13-31,29.06-31,16.83,0,28.2,12.22,28.19,30m-46.31.6c0,12.82,7.23,22.48,17.63,22.48,10.18,0,17.79-9.56,17.8-22.72,0-9.93-4.94-22.4-17.56-22.4-12.46,0-17.89,11.62-17.87,22.64"/><path class="cls-4" d="M822.91,1234.11c0-6.19-.24-11-.47-15.86h9.3l.48,9.57h.36c3.28-5.61,8.71-10.81,18.51-10.81,7.87,0,13.92,4.86,16.46,11.77h.23a23.62,23.62,0,0,1,6.65-7.64,19.88,19.88,0,0,1,12.84-4.13c7.86,0,19.35,5.14,19.35,25.42v34.38H896.23v-33c0-11.39-4.24-18-12.71-18-6.15,0-10.76,4.47-12.71,9.56a18.61,18.61,0,0,0-.84,5.33v36.18H859.55V1241.7c0-9.28-4.11-16-12.22-16-6.53,0-11.48,5.33-13.17,10.66a14.31,14.31,0,0,0-.89,5.21l0,35.2H822.91Z"/><path class="cls-4" d="M950,1278.22q-13.41,0-21.41-8.47t-8-22.49c0-10.12,2.79-18.1,8.32-23.79s13.08-8.58,22.53-8.58c9,0,16,2.81,21.12,8.35s7.59,13.22,7.59,23.1q0,14.45-8.18,23.18c-5.47,5.79-12.79,8.72-22,8.7m.72-55.16c-6.24,0-11.15,2.1-14.76,6.34s-5.44,10-5.44,17.52q0,10.75,5.49,16.95t14.7,6.2q9.4,0,14.45-6.07c3.37-4.09,5-9.85,5-17.34s-1.69-13.37-5-17.45-8.2-6.15-14.45-6.15m-.17,72.3a5.6,5.6,0,0,1-4.16-1.71,5.74,5.74,0,0,1-1.7-4.13,5.25,5.25,0,0,1,1.78-4.06,6,6,0,0,1,8.21,0,5.5,5.5,0,0,1,1.71,4.06,5.8,5.8,0,0,1-1.71,4.13,5.66,5.66,0,0,1-4.13,1.71"/><path class="cls-4" d="M1006.53,1201.8a6.3,6.3,0,0,1-6.76,6.5,6.22,6.22,0,0,1-6.42-6.5,6.46,6.46,0,0,1,6.65-6.65,6.4,6.4,0,0,1,6.53,6.65m-11.87,75v-58.56h10.65v58.56Z"/><path class="cls-4" d="M1048.62,1234.11c0-6.19-.12-11-.49-15.86h9.44l.6,9.67h.26c2.89-5.43,9.67-10.91,19.35-10.91,8.11,0,20.69,4.86,20.69,25v34.85h-10.65V1243c0-9.42-3.53-17.27-13.57-17.29-6.89,0-12.33,5-14.26,10.89a15.23,15.23,0,0,0-.74,5v35.22h-10.64Z"/><path class="cls-4" d="M1115.76,1190.91h10.64v36.67h.26a19.91,19.91,0,0,1,7.6-7.64,22,22,0,0,1,10.89-2.93c7.88,0,20.46,4.86,20.46,25v34.85H1155v-33.63c0-9.46-3.52-17.31-13.55-17.31-6.91,0-12.22,4.86-14.3,10.53a14.1,14.1,0,0,0-.71,5.09v35.32h-10.65Z"/><path class="cls-4" d="M1224,1262.76a99.07,99.07,0,0,0,.85,14h-9.54l-.86-7.38h-.33a22,22,0,0,1-17.93,8.71c-11.85,0-17.9-8.37-17.9-16.82,0-14.16,12.57-21.89,35.22-21.78v-1.2c0-4.73-1.35-13.56-13.33-13.46a28.35,28.35,0,0,0-15.35,4.37l-2.44-7.1a37.8,37.8,0,0,1,19.35-5.14c17.92,0,22.26,12.24,22.28,23.86Zm-26.83-69.8,10.64,17.29h-7.5L1185.56,1193Zm16.54,54c-11.59-.24-24.78,1.82-24.78,13.18,0,7,4.6,10.18,9.91,10.18a14.81,14.81,0,0,0,14.41-9.81,11.89,11.89,0,0,0,.49-3.39Z"/><path class="cls-2" d="M941.42,1349.06c-34.39,8.92-70,17-107,16.94-3.8,0-7.62-.14-11.42-.34,41.51,7.15,84.12,1.76,124-6,45.69-8.81,89.84-21.67,136-29.12,26.48-4.25,53.44-6.13,80.29-3.89-2.29-.53-4.56-1-6.85-1.49-75.08-15.11-146.11,6-215,23.85"/><path class="cls-1" d="M51.59,1123.22a9.6,9.6,0,0,1-9.6-9.6v-76.31H19a9.6,9.6,0,0,1-9.6-9.6v-26.08A9.6,9.6,0,0,1,19,992h97a9.6,9.6,0,0,1,9.6,9.6v26.08a9.6,9.6,0,0,1-9.6,9.6H92.71v76.31a9.6,9.6,0,0,1-9.6,9.6Z"/><path class="cls-1" d="M201.64,1123.38a9.6,9.6,0,0,1-9.6-9.6V1081H170.93v32.8a9.6,9.6,0,0,1-9.6,9.6H129.65a9.6,9.6,0,0,1-9.6-9.6v-112a9.6,9.6,0,0,1,9.6-9.6h31.68a9.6,9.6,0,0,1,9.6,9.6v33H192v-33a9.6,9.6,0,0,1,9.6-9.6H233a9.6,9.6,0,0,1,9.6,9.6v112a9.6,9.6,0,0,1-9.6,9.6Z"/><rect class="cls-1" x="246.11" y="992.03" width="50.72" height="131.19" rx="9.6"/><path class="cls-1" d="M309.93,1123.22a9.6,9.6,0,0,1-9.6-9.6v-112a9.6,9.6,0,0,1,9.6-9.6H312a9.59,9.59,0,0,1,2.68-5.87L339,961a9.6,9.6,0,0,1,6.9-2.92h18.24a9.56,9.56,0,0,1,6.89,2.92l24.32,25.12a9.55,9.55,0,0,1,2.67,5.9,9.61,9.61,0,0,1,8.83,9.57v26.56a9.59,9.59,0,0,1-6.23,9,9.58,9.58,0,0,1,3,7V1070a9.57,9.57,0,0,1-3.46,7.38,9.59,9.59,0,0,1,8.9,9.57v26.72a9.6,9.6,0,0,1-9.6,9.6Z"/><path class="cls-1" d="M495.66,1123.22a9.62,9.62,0,0,1-7.59-3.72L459,1082v31.62a9.6,9.6,0,0,1-9.6,9.6h-32a9.6,9.6,0,0,1-9.6-9.6v-112a9.6,9.6,0,0,1,9.6-9.6h26.88a9.59,9.59,0,0,1,7.59,3.73l29.2,37.78v-31.91a9.6,9.6,0,0,1,9.6-9.6h31.84a9.6,9.6,0,0,1,9.6,9.6v112a9.6,9.6,0,0,1-9.6,9.6Z"/><path class="cls-1" d="M659.79,1123.22a9.62,9.62,0,0,1-7.59-3.72L623.15,1082v31.62a9.59,9.59,0,0,1-9.59,9.6h-32a9.6,9.6,0,0,1-9.6-9.6v-112a9.6,9.6,0,0,1,9.6-9.6h26.87a9.61,9.61,0,0,1,7.6,3.73l29.2,37.78v-31.91a9.6,9.6,0,0,1,9.6-9.6h31.83a9.6,9.6,0,0,1,9.61,9.6v112a9.6,9.6,0,0,1-9.61,9.6Z"/><path class="cls-1" d="M794,1123.22a9.6,9.6,0,0,1-8.91-6l-5-12.36H743.07l-5,12.36a9.6,9.6,0,0,1-8.91,6h-33.6a9.6,9.6,0,0,1-8.76-13.53l50.24-112a9.61,9.61,0,0,1,8.76-5.67h32a9.62,9.62,0,0,1,8.77,5.68l50.07,112a9.6,9.6,0,0,1-8.76,13.52Zm-32.24-64.16-.13-.3-.12.3Z"/><path class="cls-1" d="M930.46,1123.22a9.6,9.6,0,0,1-9.6-9.6v-40.46L909.15,1087a9.59,9.59,0,0,1-7.33,3.4h-5.6a9.6,9.6,0,0,1-7.39-3.47l-11-13.27v39.94a9.6,9.6,0,0,1-9.6,9.6H836.87a9.6,9.6,0,0,1-9.6-9.6v-112a9.6,9.6,0,0,1,9.6-9.6H870a9.61,9.61,0,0,1,7.59,3.71l21.85,28.16,21.85-28.16a9.61,9.61,0,0,1,7.58-3.71h33a9.6,9.6,0,0,1,9.6,9.6v112a9.6,9.6,0,0,1-9.6,9.6Z"/><path class="cls-1" d="M1092.82,1123.38a9.6,9.6,0,0,1-9.6-9.6V1081H1062.1v32.8a9.6,9.6,0,0,1-9.6,9.6h-31.67a9.6,9.6,0,0,1-9.6-9.6v-112a9.6,9.6,0,0,1,9.6-9.6h31.67a9.6,9.6,0,0,1,9.6,9.6v33h21.12v-33a9.6,9.6,0,0,1,9.6-9.6h31.36a9.6,9.6,0,0,1,9.6,9.6v112a9.6,9.6,0,0,1-9.6,9.6Z"/><path class="cls-1" d="M1202.87,1125.94c-43.63,0-71.83-26.81-71.83-68.31,0-33.7,19.63-58.27,50.6-65.86l-14.52-21.19a9.61,9.61,0,0,1-1.68-5.42v-1.28a9.6,9.6,0,0,1,9.6-9.6h30.87a9.59,9.59,0,0,1,8.66,5.45l12.32,25.76a9.61,9.61,0,0,1,.94,4.15v1a9.33,9.33,0,0,1-.21,2c29.25,8.33,47.09,32,47.09,65.05,0,41.5-28.2,68.31-71.84,68.31m0-90.39c-12.73,0-20.95,8.66-20.95,22.08s8.22,22.07,20.95,22.07c12.93,0,21-8.46,21-22.07,0-13.83-7.83-22.08-21-22.08"/><path class="cls-1" d="M1362.37,1123.22a9.6,9.6,0,0,1-8.92-6l-4.94-12.36h-37.08l-4.94,12.36a9.6,9.6,0,0,1-8.92,6H1264a9.6,9.6,0,0,1-8.76-13.53l50.24-112a9.58,9.58,0,0,1,8.75-5.67h32a9.59,9.59,0,0,1,8.76,5.68l50.07,112a9.59,9.59,0,0,1-8.76,13.52Zm-32.25-64.16-.12-.3-.12.3Z"/><polygon class="cls-2" points="51.59 1027.71 18.95 1027.71 18.95 1001.63 115.9 1001.63 115.9 1027.71 83.11 1027.71 83.11 1113.62 51.59 1113.62 51.59 1027.71"/><polygon class="cls-2" points="201.64 1113.78 201.64 1071.38 161.33 1071.38 161.33 1113.78 129.65 1113.78 129.65 1001.79 161.33 1001.79 161.33 1044.35 201.64 1044.35 201.64 1001.79 233 1001.79 233 1113.78 201.64 1113.78"/><rect class="cls-2" x="255.71" y="1001.63" width="31.52" height="111.99"/><path class="cls-2" d="M399.52,1113.62H309.93v-112h87.35v26.56H341.13v16h52.95V1070H341.13v17h58.39Zm-53.59-145.9-24.32,25.11v1.28h25.28l8.15-7.52,8.17,7.52h25.28v-1.28l-24.32-25.11Z"/><path class="cls-2" d="M491.66,1062.91c-.8-13.44-.8-18.56-1-22.88v-38.4h31.84v112H495.66L449,1053.31l.48,24.47v35.84h-32v-112h26.88Z"/><path class="cls-2" d="M655.79,1062.91c-.8-13.44-.8-18.56-1-22.88v-38.4h31.83v112H659.79l-46.72-60.31.48,24.47v35.84h-32v-112h26.87Z"/><path class="cls-2" d="M786.64,1095.22H736.57l-7.36,18.4h-33.6l50.23-112h32l50.08,112H794Zm-25-62.23-14.4,35.68h28.64Z"/><polygon class="cls-2" points="930.46 1046.91 901.82 1080.82 896.22 1080.82 868.22 1047.07 868.22 1113.62 836.87 1113.62 836.87 1001.63 869.98 1001.63 899.42 1039.55 928.86 1001.63 961.81 1001.63 961.81 1113.62 930.46 1113.62 930.46 1046.91"/><polygon class="cls-2" points="1092.82 1113.78 1092.82 1071.38 1052.5 1071.38 1052.5 1113.78 1020.83 1113.78 1020.83 1001.79 1052.5 1001.79 1052.5 1044.35 1092.82 1044.35 1092.82 1001.79 1124.18 1001.79 1124.18 1113.78 1092.82 1113.78"/><path class="cls-2" d="M1202.87,1116.34c-36.63,0-62.23-21.28-62.23-58.71,0-36.8,25.6-58.72,62.23-58.72,36.8,0,62.24,21.44,62.24,58.72s-25.44,58.71-62.24,58.71m0-90.39c-18.07,0-30.55,13.12-30.55,31.68,0,18.72,12.63,31.67,30.55,31.67,18.56,0,30.56-13.12,30.56-31.67,0-19.2-12-31.68-30.56-31.68M1175,963.88h30.87l12.32,25.75v1h-25.75L1175,965.16Z"/><path class="cls-2" d="M1355,1095.22h-50.08l-7.36,18.4H1264l50.23-112h32l50.07,112h-33.91Zm-25-62.23-14.4,35.68h28.64Z"/></g><g id="Isolation_Mode" data-name="Isolation Mode"><path class="cls-5" d="M276.1,410.77h36.07C350.48,228.33,512.83,90.58,706.4,90.58s356,137.75,394.26,320.19h36c14.63,0,26.56,12.91,26.56,28.74v107.8c0,15.73-11.94,28.55-26.55,28.55h-36.06c-38.25,182.5-200.66,320.2-394.21,320.2S350.48,758.4,312.15,575.86l-36,0c-14.57,0-26.57-12.79-26.55-28.52V439.51c0-15.83,12-28.74,26.52-28.74"/><path class="cls-6" d="M1079.58,579.73c-42.86,173.18-194.07,301.81-373.16,301.81S376.14,752.91,333.28,579.73Z"/><path class="cls-7" d="M333.27,413.57c42.87-177,194-308.47,373.14-308.47s330.31,131.42,373.17,308.47Z"/><path class="cls-2" d="M308.3,469.27H274.51V443.21H374.87v26.06H340.92v85.88H308.3Z"/><path class="cls-2" d="M465.94,504.45c-.82-13.43-.82-18.54-1-22.86V443.21h33V555.15H470.08l-48.35-60.29.5,24.47v35.82H389.1V443.21h27.83Z"/><path class="cls-2" d="M595.94,555.31V512.93H554.21v42.38H521.42V443.37h32.79v42.54h41.73V443.37H628.4V555.31Z"/><path class="cls-2" d="M674.92,497.1H741.5v23.35H674.92Z"/><path class="cls-2" d="M809.06,506.85C809.39,523.64,819,530,830.42,530c13.75,0,21.86-8.15,21.86-23.35V469.75h-30.8V443.21h63.59v63.64c0,29.43-19.38,50.7-55,50.7-33.45,0-53-15.68-53-50.7Z"/><path class="cls-2" d="M978.3,474.23c-7.95-5.76-17.06-7.67-27.16-7.67-7.95,0-15.73,2.39-15.73,8.31,0,7.68,7.78,8.8,19.21,9.92,23,2.39,47,11.35,47,37.1,0,25.42-24.84,36.3-50.84,36.46C929.94,558.51,915,555,899,538.68l18-20c11.42,10.71,24.18,12.63,34,12.63,10.76,0,18.21-3.68,18.21-9.91,0-5.6-6.62-9.12-19.37-10.24-25.34-2.24-47.2-8.47-47.2-36.3,0-23.67,24-33.9,48.52-33.9,17.39,0,31,3.84,43.39,13.27Z"/><path class="cls-2" d="M1120.88,540.6c-13.08,12.47-29,17.43-46.54,17.43-45.54,0-63.26-27.67-63.42-58-.17-28.79,19.87-59.33,63.42-59.33,16.73,0,31.8,5.6,44.88,17.91L1099,477.75a34.76,34.76,0,0,0-24.68-9.76c-22.35,0-31.13,17.6-31,32.15s8.11,31,31,31a40.85,40.85,0,0,0,27.33-11.35Z"/></g></svg>